# xmcd CD database file
#
# Track frame offsets:
#	150
#	12883
#	25776
#	38694
#	51421
#	65223
#	79182
#	92106
#	103611
#	116241
#	129193
#	142550
#	155891
#	169765
#	183172
#	197478
#	212329
#	224144
#	238227
#	250139
#
# Disc length: 3509 seconds
#
# Revision: 6
# Processed by: cddbd v1.5.2PL0 Copyright (c) Steve Scherf et al.
# Submitted via: CDex 1.79
#
DISCID=190db314
DTITLE=Various Artist - Diggin' Deeper: 200 Legendary Blues Treasures [disc 4]
DYEAR=2004
DGENRE=Blues
TTITLE0=Arthur Crudup - Gonna Follow My Baby - Arthur Crudup
TTITLE1=Sleepy John Estes - Airplane Blues - Sleepy John Estes
TTITLE2=Ma Rainey - Army Camp Harmony Blues - Ma Rainey
TTITLE3=Bukka White - High Fever Blues - Bukka White
TTITLE4=Leadbelly - Roberta, Pt.1 -Leadbelly
TTITLE5=Blind Boy Fuller and Sonny Terry - Sweet Woman - Blind Boy Fuller and Sonny Terry
TTITLE6=Memphis Minnie - Joe Louis Strut - Memphis Minnie
TTITLE7=Lightnin' Hopkins - Can't Do like You Used To - Lightnin' Hopkins
TTITLE8=Kokomo Arnold - Salty Dog - Kokomo Arnold
TTITLE9=Blind Willie McTell - Painful Blues - Blind Willie McTell
TTITLE10=Jimmy Yancey - Two o'Clock Blues - Jimmy Yancey
TTITLE11=Robert Johnson - I Believe I'll Dust My Broom - Robert Johnson
TTITLE12=Muddy Waters - Take a Walk with Me - Muddy Waters
TTITLE13=Mississippi John Hurt - Louis Collins - Mississippi John Hurt
TTITLE14=Big Bill Broonzy - Rising Sun Shine On - Big Bill Broonzy
TTITLE15=Bessie Smith - Midnight Blues - Bessie Smith
TTITLE16=Joe Turner - Blues on Central Avenue - Joe Turner
TTITLE17=John Lee Hooker - Stomp Boogie - John Lee Hooker
TTITLE18=Brownie McGhee - I'm Calling Daisy - Brownie McGhee
TTITLE19=John Lee Williamson - Stop Breaking Down - John Lee Williamson
EXTD=10CD: Documents/Membran 222024-321 (2004), EAN 4011222220240, ISBN 978-3-87562-765-8. YEAR: 2004
EXTT0=(Arthur Crudup/R. Knowling)
EXTT1=(John Estes)
EXTT2=(trad./Ma Rainey)
EXTT3=(Bukka White)
EXTT4=(Huddie Ledbetter)
EXTT5=(Sonny Terry)
EXTT6=(E. Lawler)
EXTT7=(Wilson Smith)
EXTT8=(James Arnold)
EXTT9=(Willie McTell)
EXTT10=(Jimmy Yancey)
EXTT11=(Robert Johnson)
EXTT12=(McKinley Morganfield)
EXTT13=(John Hurt)
EXTT14=(Lester Melrose)
EXTT15=(B. Thomson/S. Williams)
EXTT16=(Turner)
EXTT17=(John Lee Hooker)
EXTT18=(Walter McGhee)
EXTT19=(John Lee Williamson)
PLAYORDER=
